<svg width="13" height="16" fill="none" xmlns="http://www.w3.org/2000/svg"><path d="M9 .5h-.081a1.262 1.262 0 00-1.213.958 1.25 1.25 0 01-2.412 0A1.262 1.262 0 004.081.5H4A3.129 3.129 0 00.875 3.625v10A1.875 1.875 0 002.75 15.5h1.331a1.263 1.263 0 001.213-.957 1.25 1.25 0 012.412 0 1.263 1.263 0 001.213.957h1.331a1.875 1.875 0 001.875-1.875v-10A3.129 3.129 0 009 .5zm1.25 13.75l-1.34-.04a2.5 2.5 0 00-4.829.04H2.75a.625.625 0 01-.625-.625v-2.5h1.25a.625.625 0 100-1.25h-1.25v-6.25A1.875 1.875 0 014 1.75l.09.04A2.506 2.506 0 006.5 3.624 2.544 2.544 0 008.933 1.75H9a1.875 1.875 0 011.875 1.875v6.25h-1.25a.625.625 0 100 1.25h1.25v2.5a.624.624 0 01-.625.625z" fill="#fff" opacity=".5"/></svg>